<svg width="16" height="16" viewBox="0 0 16 16" fill="none" xmlns="http://www.w3.org/2000/svg">
<path d="M14.7968 2.9016C15.1486 3.02522 15.4532 3.25502 15.6688 3.55926C15.8843 3.86349 16 4.22715 16 4.6V12.6C16 13.5017 15.6418 14.3665 15.0042 15.0042C14.3665 15.6418 13.5017 16 12.6 16H4.6C4.22715 16 3.86349 15.8843 3.55926 15.6688C3.25502 15.4532 3.02522 15.1486 2.9016 14.7968L4.5792 14.8H12.6C13.1835 14.8 13.7431 14.5682 14.1556 14.1556C14.5682 13.7431 14.8 13.1835 14.8 12.6V4.6L14.7968 4.5592V2.9016ZM12.1968 0C12.6742 0 13.132 0.189642 13.4696 0.527208C13.8072 0.864773 13.9968 1.32261 13.9968 1.8V12.1976C13.9968 12.675 13.8072 13.1328 13.4696 13.4704C13.132 13.808 12.6742 13.9976 12.1968 13.9976H1.8C1.32261 13.9976 0.864773 13.808 0.527208 13.4704C0.189642 13.1328 0 12.675 0 12.1976V1.8C0 1.32261 0.189642 0.864773 0.527208 0.527208C0.864773 0.189642 1.32261 0 1.8 0H12.1976H12.1968ZM12.1968 1.2H1.8C1.64087 1.2 1.48826 1.26321 1.37574 1.37574C1.26321 1.48826 1.2 1.64087 1.2 1.8V12.1976C1.2 12.5288 1.4688 12.7976 1.8 12.7976H12.1976C12.3567 12.7976 12.5093 12.7344 12.6219 12.6219C12.7344 12.5093 12.7976 12.3567 12.7976 12.1976V1.8C12.7976 1.64087 12.7344 1.48826 12.6219 1.37574C12.5093 1.26321 12.3567 1.2 12.1976 1.2H12.1968ZM7 3.8C7.15913 3.8 7.31174 3.86321 7.42426 3.97574C7.53679 4.08826 7.6 4.24087 7.6 4.4V6.4H9.6C9.75913 6.4 9.91174 6.46321 10.0243 6.57574C10.1368 6.68826 10.2 6.84087 10.2 7C10.2 7.15913 10.1368 7.31174 10.0243 7.42426C9.91174 7.53679 9.75913 7.6 9.6 7.6H7.6V9.6C7.6 9.75913 7.53679 9.91174 7.42426 10.0243C7.31174 10.1368 7.15913 10.2 7 10.2C6.84087 10.2 6.68826 10.1368 6.57574 10.0243C6.46321 9.91174 6.4 9.75913 6.4 9.6V7.6H4.4C4.24087 7.6 4.08826 7.53679 3.97574 7.42426C3.86321 7.31174 3.8 7.15913 3.8 7C3.8 6.84087 3.86321 6.68826 3.97574 6.57574C4.08826 6.46321 4.24087 6.4 4.4 6.4H6.4V4.4C6.4 4.24087 6.46321 4.08826 6.57574 3.97574C6.68826 3.86321 6.84087 3.8 7 3.8Z" fill="#252525"/>
</svg>
