<svg width="16" height="16" viewBox="0 0 16 16" fill="none" xmlns="http://www.w3.org/2000/svg">
<path d="M6.68652 9.96484C7.65793 9.96531 8.44531 10.7531 8.44531 11.7246V14.2441C8.44497 15.2154 7.65772 16.0025 6.68652 16.0029H4.16699C3.1954 16.0029 2.40757 15.2157 2.40723 14.2441V11.7246C2.40723 10.7528 3.19518 9.96484 4.16699 9.96484H6.68652ZM14.2441 9.96484C15.2156 9.9652 16.0039 10.753 16.0039 11.7246V14.2441C16.0036 15.2154 15.2154 16.0026 14.2441 16.0029H11.7246C10.753 16.0029 9.96519 15.2156 9.96484 14.2441V11.7246C9.96484 10.7528 10.7528 9.96489 11.7246 9.96484H14.2441ZM4.16699 10.9648C3.74745 10.9648 3.40723 11.3051 3.40723 11.7246V14.2441C3.40757 14.6634 3.74766 15.0029 4.16699 15.0029H6.68652C7.10545 15.0025 7.44497 14.6631 7.44531 14.2441V11.7246C7.44531 11.3054 7.10567 10.9653 6.68652 10.9648H4.16699ZM11.7246 10.9648C11.3051 10.9649 10.9648 11.3051 10.9648 11.7246V14.2441C10.9652 14.6633 11.3053 15.0029 11.7246 15.0029H14.2441C14.6632 15.0026 15.0036 14.6631 15.0039 14.2441V11.7246C15.0039 11.3053 14.6634 10.9652 14.2441 10.9648H11.7246ZM14.2441 2.40723C15.2156 2.40759 16.0039 3.1954 16.0039 4.16699V6.68652C16.0035 7.6578 15.2154 8.44495 14.2441 8.44531H11.7246C10.7531 8.44527 9.96522 7.658 9.96484 6.68652V4.16699C9.96484 3.1952 10.7528 2.40727 11.7246 2.40723H14.2441ZM6.45996 0C7.17335 0.000151636 7.75195 0.578584 7.75195 1.29199V6.45996C7.75173 7.17318 7.17321 7.75082 6.45996 7.75098H1.29199C0.578615 7.75098 0.00022549 7.17327 0 6.45996V1.29199C0 0.578491 0.578476 0 1.29199 0H6.45996ZM11.7246 3.40723C11.3051 3.40727 10.9648 3.74751 10.9648 4.16699V6.68652C10.9652 7.10569 11.3053 7.44527 11.7246 7.44531H14.2441C14.6632 7.44495 15.0035 7.1055 15.0039 6.68652V4.16699C15.0039 3.7477 14.6634 3.40759 14.2441 3.40723H11.7246Z" fill="#252525"/>
</svg>
