<svg width="19" height="17" viewBox="0 0 19 17" fill="none" xmlns="http://www.w3.org/2000/svg">
<path d="M5.54995 16.75C6.43361 16.75 7.14995 16.0337 7.14995 15.15C7.14995 14.2663 6.43361 13.55 5.54995 13.55C4.6663 13.55 3.94995 14.2663 3.94995 15.15C3.94995 16.0337 4.6663 16.75 5.54995 16.75Z" fill="#252525"/>
<path d="M15.15 16.75C16.0337 16.75 16.75 16.0337 16.75 15.15C16.75 14.2663 16.0337 13.55 15.15 13.55C14.2664 13.55 13.55 14.2663 13.55 15.15C13.55 16.0337 14.2664 16.75 15.15 16.75Z" fill="#252525"/>
<path d="M0.75 0.75H2.88333L3.52333 3.95M3.52333 3.95L5.01667 11.4167H15.6833L17.8167 3.95H3.52333Z" stroke="#252525" stroke-width="1.5" stroke-linecap="round" stroke-linejoin="round"/>
</svg>
