<svg width="16" height="16" viewBox="0 0 16 16" fill="none" xmlns="http://www.w3.org/2000/svg">
<path fill-rule="evenodd" clip-rule="evenodd" d="M8 1.24749C4.27069 1.24749 1.24749 4.27069 1.24749 8C1.24749 11.7293 4.27069 14.7525 8 14.7525C11.7293 14.7525 14.7525 11.7293 14.7525 8C14.7525 4.27069 11.7293 1.24749 8 1.24749ZM0 8C0 3.58172 3.58172 0 8 0C12.4183 0 16 3.58172 16 8C16 12.4183 12.4183 16 8 16C3.58172 16 0 12.4183 0 8Z" fill="#252525"/>
<path d="M7.93775 9.33303C9.42984 9.33303 10.6394 8.04387 10.6394 6.45362C10.6394 4.86337 9.42984 3.57422 7.93775 3.57422C6.44566 3.57422 5.23608 4.86337 5.23608 6.45362C5.23608 8.04387 6.44566 9.33303 7.93775 9.33303Z" fill="#252525"/>
<path d="M2.58777 13.6699C2.58777 12.0081 5.01393 10.6572 8.00887 10.6572C11.0038 10.6572 13.43 12.0081 13.43 13.6699" fill="#252525"/>
<path d="M8.11556 15.0829C10.339 15.0829 12.1414 14.5219 12.1414 13.8299C12.1414 13.1378 10.339 12.5768 8.11556 12.5768C5.89215 12.5768 4.08972 13.1378 4.08972 13.8299C4.08972 14.5219 5.89215 15.0829 8.11556 15.0829Z" fill="#252525"/>
</svg>
