<svg width="16" height="16" viewBox="0 0 16 16" fill="none" xmlns="http://www.w3.org/2000/svg">
<path d="M16 2.70848C16 1.99015 15.7147 1.30124 15.2067 0.793296C14.6988 0.285357 14.01 0 13.2917 0H3.70833C2.99004 0 2.30116 0.285357 1.79325 0.793296C1.28534 1.30124 1 1.99015 1 2.70848V6.46453C1.37498 6.15467 1.79694 5.90655 2.25 5.72949V2.70848C2.25 1.90344 2.90333 1.25007 3.70833 1.25007H13.2917C14.0967 1.25007 14.75 1.90344 14.75 2.70848V12.2923C14.75 12.4665 14.7192 12.6332 14.6633 12.7882L9.81167 8.03628L9.705 7.93961C9.44964 7.72556 9.14188 7.5834 8.81337 7.52774C8.48485 7.47209 8.14744 7.50494 7.83583 7.62292C8.05167 7.97711 8.22 8.3638 8.33417 8.77299C8.43965 8.74402 8.55088 8.74324 8.65676 8.77074C8.76263 8.79823 8.85944 8.85303 8.9375 8.92966L13.775 13.6674C13.6195 13.7222 13.4557 13.7501 13.2908 13.7499H9.31167L9.73833 14.1775C9.97 14.4083 10.1075 14.6992 10.1508 15H13.2908C13.6465 15.0001 13.9987 14.9302 14.3273 14.7941C14.656 14.6581 14.9546 14.4587 15.2062 14.2073C15.4577 13.9559 15.6573 13.6573 15.7935 13.3288C15.9297 13.0002 15.9999 12.648 16 12.2923V2.70848ZM13.0867 4.7936C13.0867 4.29585 12.8889 3.81848 12.537 3.46652C12.1851 3.11456 11.7077 2.91683 11.21 2.91683C10.7123 2.91683 10.2349 3.11456 9.883 3.46652C9.53105 3.81848 9.33333 4.29585 9.33333 4.7936C9.33333 5.29135 9.53105 5.76871 9.883 6.12068C10.2349 6.47264 10.7123 6.67037 11.21 6.67037C11.7077 6.67037 12.1851 6.47264 12.537 6.12068C12.8889 5.76871 13.0867 5.29135 13.0867 4.7936ZM10.5833 4.7936C10.5833 4.62739 10.6494 4.46798 10.7669 4.35045C10.8844 4.23293 11.0438 4.1669 11.21 4.1669C11.3762 4.1669 11.5356 4.23293 11.6531 4.35045C11.7706 4.46798 11.8367 4.62739 11.8367 4.7936C11.8367 4.95981 11.7706 5.11921 11.6531 5.23674C11.5356 5.35427 11.3762 5.4203 11.21 5.4203C11.0438 5.4203 10.8844 5.35427 10.7669 5.23674C10.6494 5.11921 10.5833 4.95981 10.5833 4.7936Z" fill="#E13B30"/>
<path d="M6.67929 12.5333C7.28763 11.8071 7.60081 10.8791 7.5568 9.93315C7.51279 8.98716 7.11479 8.0922 6.44165 7.42556C5.76851 6.75892 4.86933 6.36924 3.92226 6.33372C2.97519 6.29819 2.04931 6.61941 1.32804 7.23375C0.606779 7.84808 0.142749 8.71071 0.0278805 9.65074C-0.0869877 10.5908 0.155686 11.5396 0.707827 12.3093C1.25997 13.079 2.08129 13.6134 3.0091 13.8066C3.9369 13.9999 4.90349 13.8378 5.71738 13.3526L8.16626 15.7996C8.22395 15.8615 8.29351 15.9111 8.37079 15.9455C8.44808 15.9799 8.53151 15.9984 8.61611 15.9999C8.70072 16.0014 8.78475 15.9858 8.8632 15.9542C8.94166 15.9225 9.01293 15.8754 9.07276 15.8156C9.13259 15.7558 9.17976 15.6846 9.21144 15.6062C9.24313 15.5278 9.2587 15.4438 9.25721 15.3593C9.25571 15.2748 9.2372 15.1914 9.20276 15.1142C9.16832 15.0369 9.11867 14.9674 9.05676 14.9098L6.67929 12.5333ZM3.78096 12.6256C3.11254 12.6256 2.47149 12.3603 1.99884 11.888C1.5262 11.4158 1.26067 10.7752 1.26067 10.1073C1.26067 9.43939 1.5262 8.79884 1.99884 8.32656C2.47149 7.85428 3.11254 7.58895 3.78096 7.58895C4.44938 7.58895 5.09043 7.85428 5.56307 8.32656C6.03572 8.79884 6.30125 9.43939 6.30125 10.1073C6.30125 10.7752 6.03572 11.4158 5.56307 11.888C5.09043 12.3603 4.44938 12.6256 3.78096 12.6256Z" fill="#E13B30"/>
<path d="M5.02908 10.1295C5.02908 10.8287 4.46622 11.3956 3.77191 11.3956C3.0776 11.3956 2.51475 10.8287 2.51475 10.1295C2.51475 9.43017 3.0776 8.86328 3.77191 8.86328C4.46622 8.86328 5.02908 9.43017 5.02908 10.1295Z" fill="#E13B30"/>
</svg>
