<svg width="16" height="16" viewBox="0 0 16 16" fill="none" xmlns="http://www.w3.org/2000/svg">
<path d="M0 3.42857C0 2.51926 0.361224 1.64719 1.00421 1.00421C1.64719 0.361224 2.51926 0 3.42857 0H12.5714C13.4807 0 14.3528 0.361224 14.9958 1.00421C15.6388 1.64719 16 2.51926 16 3.42857V12.5714C16 13.4807 15.6388 14.3528 14.9958 14.9958C14.3528 15.6388 13.4807 16 12.5714 16H3.42857C2.51926 16 1.64719 15.6388 1.00421 14.9958C0.361224 14.3528 0 13.4807 0 12.5714V3.42857ZM1.14286 8V12.5714C1.14286 13.1776 1.38367 13.759 1.81233 14.1877C2.24098 14.6163 2.82236 14.8571 3.42857 14.8571H9.14286V8H1.14286ZM9.14286 6.85714V1.14286H3.42857C2.82236 1.14286 2.24098 1.38367 1.81233 1.81233C1.38367 2.24098 1.14286 2.82236 1.14286 3.42857V6.85714H9.14286ZM10.2857 14.8571H12.5714C13.1776 14.8571 13.759 14.6163 14.1877 14.1877C14.6163 13.759 14.8571 13.1776 14.8571 12.5714V11.4286H10.2857V14.8571ZM14.8571 4.57143V3.42857C14.8571 2.82236 14.6163 2.24098 14.1877 1.81233C13.759 1.38367 13.1776 1.14286 12.5714 1.14286H10.2857V4.57143H14.8571ZM14.8571 5.71429H10.2857V10.2857H14.8571V5.71429Z" fill="#252525"/>
</svg>
