<svg width="140" height="125" viewBox="0 0 140 125" fill="none" xmlns="http://www.w3.org/2000/svg">
<g filter="url(#filter0_d_433_992)">
<path d="M17.3777 62.0769L58.6134 50.3979V50.4959C57.7967 50.7654 56.98 51.0431 56.1632 51.3126L30.7881 59.4797C26.4323 60.879 22.0956 62.2702 17.7779 63.6531C17.706 63.6659 17.6373 63.6928 17.5758 63.7321C17.5143 63.7715 17.4612 63.8226 17.4195 63.8826C17.3778 63.9425 17.3483 64.0101 17.3327 64.0814C17.3171 64.1527 17.3158 64.2264 17.3287 64.2983C17.3287 66.5606 17.3777 68.8147 17.4022 71.0688V71.714H15.3604V64.4208L4.6207 67.8673L4 65.8827L6.28679 65.213C9.16161 64.3963 12.0038 63.5796 14.9112 62.7629C15.3441 62.6404 15.4013 62.4117 15.4013 62.0279C15.4448 52.6085 15.4884 43.1891 15.5319 33.7697C15.5319 29.5636 15.5891 25.3494 15.6054 21.1434C15.5904 20.8362 15.6754 20.5324 15.8477 20.2776C16.02 20.0228 16.2703 19.8308 16.561 19.7305L39.2655 9.66043L57.2985 1.64034C58.4582 1.12581 59.6179 0.611287 60.7777 0.113094C61.4392 -0.180922 61.8557 0.113094 61.8475 0.823631C61.804 7.12863 61.7632 13.4227 61.725 19.706C61.676 28.864 61.6298 38.0166 61.5862 47.1637C61.5535 53.2183 61.5181 59.2647 61.48 65.3029C61.48 66.5361 61.48 67.753 61.3657 69.0026C61.2187 46.396 61.0717 23.7596 60.9247 1.09315L32.1928 14.2667C27.4015 16.4718 22.6046 18.6824 17.8024 20.8984C17.5935 20.9635 17.414 21.0995 17.2947 21.2829C17.1754 21.4663 17.1239 21.6856 17.149 21.9029C17.2198 30.4947 17.2743 39.081 17.3124 47.6619C17.3124 52.211 17.3124 56.7601 17.3614 61.3173L17.3777 62.0769Z" fill="white"/>
<path d="M135.359 84.9285L134.681 86.8805L127.013 84.169V89.5021C126.384 89.5021 125.796 89.5021 125.216 89.5021C125.11 89.5021 124.938 89.1918 124.938 89.0284C124.938 87.395 124.938 85.7616 124.938 84.0792C124.967 83.8943 124.922 83.7057 124.814 83.5532C124.706 83.4007 124.542 83.2964 124.358 83.2625C118.641 81.2533 112.924 79.2279 107.207 77.1861C92.9258 72.1225 78.6443 67.0508 64.3627 61.9708C64.1988 61.9268 64.0512 61.836 63.938 61.7095L124.963 81.5719C124.963 81.3024 124.963 81.1227 124.963 80.9348L125.183 62.5507C125.248 56.0715 125.322 49.5895 125.404 43.1048C125.421 43.0072 125.419 42.907 125.398 42.8101C125.377 42.7132 125.336 42.6215 125.279 42.5403C125.222 42.459 125.15 42.3899 125.066 42.3368C124.982 42.2837 124.889 42.2477 124.791 42.231C114.196 38.632 103.611 35.0194 93.0374 31.3932L66.086 22.1644C65.9502 22.1316 65.8311 22.0503 65.7511 21.9357C66.429 22.1481 67.1069 22.3441 67.7847 22.5646L104.365 34.3252C111.601 36.6773 118.845 39.0077 126.098 41.3162C126.296 41.3502 126.472 41.4612 126.589 41.625C126.705 41.7888 126.752 41.992 126.719 42.1901C126.751 49.5677 126.797 56.9426 126.857 64.3148C126.895 70.059 126.925 75.8032 126.947 81.5474C126.921 81.7367 126.971 81.9285 127.086 82.0814C127.201 82.2342 127.371 82.3358 127.56 82.3641C130.01 83.1318 132.411 83.9322 134.837 84.7244C134.984 84.7897 135.155 84.8469 135.359 84.9285Z" fill="white"/>
<path d="M28.6065 111.676C28.3497 111.695 28.0932 111.635 27.8715 111.504C27.6675 111.383 27.5073 111.2 27.4141 110.981C27.3325 110.875 27.21 110.704 27.0385 110.451C26.8836 110.225 26.7779 109.969 26.7281 109.699C26.6628 109.03 26.6301 108.384 26.6219 107.755C26.6138 107.127 26.6219 106.253 26.6954 105.126C26.7592 104.226 26.8792 103.331 27.0548 102.447C27.2345 101.573 27.4141 100.813 27.5938 100.111C27.7735 99.4087 27.9123 98.8697 28.0103 98.4776C28.1083 98.0856 28.141 97.8651 28.0757 97.8651C28.0103 97.8651 27.8715 98.0203 27.7 98.3225C27.5285 98.6246 27.3406 98.9922 27.1365 99.4332C26.9323 99.8742 26.7199 100.307 26.5076 100.732C26.2952 101.156 26.1237 101.548 25.9767 101.785C25.6827 102.431 25.3479 103.117 24.9558 103.835C24.5638 104.554 24.18 105.256 23.7798 105.926L22.7507 107.674C22.5104 107.958 22.2894 108.258 22.0892 108.572C21.836 108.956 21.5665 109.389 21.2725 109.781C21.0127 110.159 20.7083 110.505 20.3659 110.81C20.0078 111.204 19.5273 111.466 19.002 111.553C18.7974 111.58 18.5895 111.562 18.3923 111.501C18.1951 111.441 18.0131 111.339 17.8586 111.202C17.7857 111.107 17.7176 111.009 17.6545 110.908C17.5712 110.767 17.5131 110.612 17.4829 110.451C17.4313 110.236 17.4313 110.012 17.4829 109.797C17.4554 109.343 17.4554 108.888 17.4829 108.433C17.4829 107.813 17.5728 107.135 17.6545 106.392C17.7361 105.648 17.826 104.938 17.9158 104.244C18.0056 103.549 18.1036 102.986 18.1853 102.52C18.3732 101.189 18.6263 99.817 18.953 98.4368C19.2797 97.0566 19.5737 95.6191 19.8432 94.1981C20.0271 93.7351 20.1799 93.2603 20.3006 92.777C20.4394 92.2461 20.5783 91.7479 20.7253 91.2906C20.711 91.1224 20.7312 90.9532 20.7845 90.7931C20.8379 90.633 20.9233 90.4855 21.0356 90.3595C21.1235 90.2849 21.2276 90.2319 21.3397 90.205C21.4518 90.178 21.5687 90.1778 21.6808 90.2044C21.9158 90.2592 22.1223 90.3988 22.2607 90.5964C22.5044 90.8721 22.6706 91.2074 22.7426 91.5683C22.8376 92.1267 22.7458 92.7008 22.4812 93.2017C21.999 94.4243 21.5953 95.6764 21.2725 96.9504C20.8313 98.7119 20.4797 100.495 20.2189 102.292C20.1373 102.798 20.0474 103.394 19.9412 104.08C19.8351 104.766 19.7452 105.436 19.6554 106.089C19.5656 106.743 19.5166 107.282 19.4839 107.723C19.4512 108.164 19.4839 108.392 19.4839 108.417C19.6554 108.417 19.8841 108.327 20.1781 108.025C20.5145 107.669 20.7904 107.261 20.9948 106.816C21.8115 105.395 22.7017 103.909 23.5429 102.349C24.3841 100.789 25.1764 99.2535 25.9931 97.7263C26.3442 97.1219 26.7036 96.4604 27.0711 95.7335C27.4386 95.0066 27.7898 94.3532 28.1247 93.7489C28.4595 93.1445 28.8025 92.5483 29.0966 92.042C29.3906 91.5356 29.6356 91.1027 29.8479 90.7679C30.0603 90.433 30.2236 90.2452 30.3461 90.2044C30.6488 90.2176 30.9446 90.2985 31.2118 90.4412C31.5005 90.6384 31.7159 90.9256 31.8244 91.2579C31.8708 91.4318 31.8708 91.6149 31.8244 91.7888C31.767 92.0117 31.6933 92.2301 31.6039 92.4421C31.5364 92.7532 31.4463 93.0589 31.3343 93.3569C31.1792 93.8142 31.0403 94.3287 30.9097 94.8923C30.779 95.4558 30.5258 96.0112 30.3625 96.5257C30.1991 97.0402 30.1011 97.5303 30.0358 97.8896C29.8724 98.788 29.6601 99.7762 29.4069 100.854C29.1537 101.932 28.9414 102.994 28.7699 104.048C28.6039 104.984 28.503 105.931 28.4677 106.882C28.4412 107.341 28.4412 107.802 28.4677 108.262C28.4818 108.541 28.5397 108.817 28.6392 109.079C28.68 109.25 28.8107 109.348 29.0312 109.397C29.134 109.419 29.2409 109.409 29.3383 109.37C29.4357 109.331 29.5192 109.263 29.5784 109.177C29.9949 108.654 30.3951 108.18 30.6646 107.747C30.9342 107.314 31.2527 106.882 31.4814 106.432C31.71 105.983 32.0367 105.477 32.2981 104.913C32.8208 103.95 33.3598 102.88 33.9315 101.695C34.5032 100.511 35.0177 99.3433 35.5241 98.1754C36.0304 97.0075 36.4796 95.9785 36.8553 95.1046L37.8109 92.4095C37.9885 91.8907 38.2041 91.3857 38.4561 90.8986C38.5908 90.6213 38.7965 90.3846 39.0523 90.2125C39.1817 90.1242 39.3368 90.0811 39.4933 90.09C39.7048 90.1 39.9052 90.1872 40.0568 90.335C40.1602 90.4493 40.2406 90.5824 40.2937 90.7271C40.3665 90.9338 40.3916 91.1544 40.3672 91.3723C40.261 91.7071 40.0813 92.238 39.82 93.0057C39.5586 93.7734 39.2646 94.5411 38.9297 95.4558C38.5949 96.3705 38.2682 97.1709 37.9579 97.9631C37.6475 98.7553 37.3698 99.3923 37.1412 99.8742C36.9434 100.263 36.7225 100.639 36.4796 101.001C36.3155 101.213 36.2086 101.463 36.1693 101.728C36.097 101.996 35.9928 102.253 35.8589 102.496C35.6466 102.921 35.3771 103.435 35.0422 104.048C34.7074 104.66 34.3643 105.281 33.9887 105.926C33.613 106.571 33.2618 107.167 32.9269 107.715C32.6756 108.144 32.403 108.561 32.1102 108.964C31.6552 109.554 31.1467 110.101 30.5911 110.598C30.2002 110.945 29.773 111.249 29.3171 111.504C29.0928 111.605 28.8519 111.663 28.6065 111.676Z" fill="white"/>
<path d="M39.8684 108.883C39.7947 108.732 39.6888 108.598 39.5581 108.491C39.4274 108.401 39.3703 108.312 39.3703 108.23C39.3703 108.148 39.3703 108.05 39.3703 107.96C39.3525 107.857 39.3008 107.762 39.2232 107.691C39.1252 107.568 39.1334 107.283 39.2232 106.833C39.3971 106.276 39.6072 105.73 39.8521 105.2C40.1461 104.547 40.4891 103.852 40.8893 103.117C41.0806 102.92 41.2478 102.701 41.3875 102.464C41.4981 102.275 41.6237 102.094 41.7632 101.925C41.7653 101.839 41.8004 101.757 41.8612 101.696C41.8853 101.662 41.917 101.634 41.9539 101.614C41.9907 101.594 42.0317 101.583 42.0736 101.582V101.394C42.1268 101.194 42.2309 101.011 42.3757 100.863C42.6056 100.578 42.851 100.305 43.1108 100.047C43.4048 99.7444 43.707 99.4503 44.0173 99.1727C44.2702 98.9438 44.5436 98.7388 44.834 98.5601C45.2407 98.2786 45.708 98.0968 46.1979 98.0293C46.4099 97.9919 46.6274 98.0003 46.8358 98.0538C47.0443 98.1073 47.2389 98.2048 47.4067 98.3396L47.717 98.65C47.864 98.797 48.0355 98.9603 48.2397 99.14L48.8523 99.6872L50.012 100.724L49.4485 102.292C49.1816 102.99 49.111 103.747 49.2443 104.481C49.3565 105.055 49.5606 105.606 49.8486 106.115C49.9968 106.39 50.2207 106.616 50.4938 106.768C50.77 106.96 51.0851 107.088 51.4167 107.144C51.5868 107.17 51.7488 107.234 51.8904 107.332C51.9658 107.391 52.0254 107.469 52.0638 107.557C52.1023 107.646 52.1184 107.742 52.1109 107.838C52.1222 108.014 52.0764 108.189 51.9803 108.336C51.9297 108.406 51.8651 108.465 51.7905 108.508C51.716 108.552 51.6332 108.58 51.5474 108.589C50.8649 108.674 50.1757 108.496 49.62 108.091C48.9228 107.535 48.3637 106.825 47.9865 106.017C47.8583 105.792 47.749 105.557 47.6599 105.314C47.5658 105.094 47.4867 104.867 47.423 104.636L46.9575 105.216C46.7889 105.43 46.6089 105.634 46.4185 105.829C45.3145 107.043 44.0175 108.067 42.5799 108.859C42.1716 109.105 41.7045 109.238 41.2275 109.242C40.7505 109.246 40.2812 109.123 39.8684 108.883ZM41.6734 107.111C42.2026 106.909 42.694 106.619 43.1271 106.254C43.8377 105.649 44.5564 104.979 45.2751 104.244C45.9082 103.614 46.49 102.934 47.0147 102.211L47.7007 101.084C47.5665 100.702 47.3358 100.362 47.031 100.096C46.8603 99.9435 46.6459 99.8492 46.4185 99.826C46.1489 99.826 45.7488 100.079 45.2097 100.577C44.5839 101.188 44.0152 101.855 43.511 102.57C42.8798 103.451 42.3043 104.37 41.7877 105.322C41.5863 105.747 41.314 106.343 40.971 107.111C40.9955 107.274 41.2242 107.266 41.6734 107.111Z" fill="white"/>
<path d="M55.2275 110.009C55.062 110.068 54.8826 110.076 54.7123 110.032C54.5421 109.989 54.3887 109.895 54.272 109.764C54.0036 109.399 53.8578 108.959 53.8555 108.506C53.8175 107.831 53.8808 107.154 54.0433 106.497C54.1433 106.258 54.2252 106.013 54.2883 105.762C54.3456 105.574 54.3786 105.379 54.3863 105.182C54.4545 104.87 54.539 104.562 54.6395 104.259C54.762 103.851 54.9009 103.443 55.0397 102.993C55.1785 102.544 55.3337 102.177 55.4644 101.817C55.5951 101.458 55.6931 101.254 55.7339 101.172C55.7747 101.09 55.8891 101.099 55.9544 100.952C56.0115 100.811 56.042 100.662 56.0443 100.511C56.0514 100.318 56.0901 100.127 56.1586 99.947C56.2047 99.7887 56.2825 99.6415 56.3873 99.5142C56.3935 99.3906 56.4211 99.269 56.4689 99.1548C56.5138 99.0483 56.5414 98.9352 56.5506 98.82C56.5522 98.7331 56.5776 98.6483 56.6241 98.575C56.6754 98.5003 56.7038 98.4123 56.7058 98.3218C56.8528 98.0523 57.0406 97.6112 57.2857 97.0232L58.1024 95.0304C58.38 94.2954 58.6496 93.5767 58.9191 92.8662C59.1886 92.1556 59.3683 91.5594 59.5234 91.0612C59.6344 90.7739 59.7138 90.4754 59.7603 90.171C59.7546 90.1027 59.7633 90.034 59.7858 89.9693C59.8083 89.9046 59.8441 89.8453 59.891 89.7953C59.9422 89.7508 60.0018 89.717 60.0664 89.6959C60.1309 89.6749 60.199 89.667 60.2666 89.6728C60.3284 89.6078 60.4079 89.5623 60.4953 89.5421C60.585 89.5351 60.6751 89.5351 60.7648 89.5421L61.263 90.0485C61.4216 90.1718 61.5292 90.3491 61.5652 90.5467C61.6002 90.7654 61.6166 90.9867 61.6142 91.2082C61.6183 91.4514 61.5852 91.6937 61.5162 91.9269C61.4122 92.2375 61.2867 92.5404 61.1405 92.8335L60.2666 94.6874C60.0924 95.1012 59.9127 95.4932 59.7276 95.8635C59.6024 96.0717 59.5088 96.2974 59.4499 96.5332C59.4351 96.6643 59.3964 96.7917 59.3356 96.9089C59.2621 97.0804 59.1886 97.2845 59.1069 97.5377C59.0252 97.7909 58.9027 97.9543 58.7557 98.2728C58.6087 98.5913 58.4617 98.9425 58.3065 99.31L57.9145 100.249C57.8466 100.396 57.7945 100.549 57.7594 100.707C57.7594 100.788 57.7594 100.87 57.7594 100.952C57.7412 101.05 57.6893 101.14 57.6123 101.205C57.5307 101.205 57.4817 101.319 57.4572 101.548C57.3557 102.11 57.1885 102.658 56.959 103.181L56.0361 106.342C55.7889 107.092 55.646 107.872 55.6114 108.661C55.6308 108.99 55.6308 109.32 55.6114 109.65C55.5911 109.741 55.5436 109.824 55.4751 109.889C55.4066 109.953 55.3203 109.995 55.2275 110.009Z" fill="white"/>
<path d="M61.0132 108.538C60.8395 108.438 60.6825 108.311 60.5477 108.162C60.4358 108.009 60.3809 107.821 60.3925 107.632C60.3945 107.299 60.4356 106.967 60.515 106.643C60.5967 106.3 60.6784 105.957 60.7682 105.622C60.858 105.288 60.8662 104.863 60.9397 104.479C61.01 104.096 61.1543 103.729 61.3644 103.401C61.5931 102.584 61.8299 101.817 62.0831 101.033C62.3363 100.249 62.5486 99.3992 62.7365 98.5824C62.9243 97.7657 63.2592 97.1287 63.4797 96.5325C63.7002 95.9363 63.9697 95.1768 64.2964 94.2621C64.4921 93.7112 64.6557 93.1494 64.7864 92.5796C64.9097 92.0045 65.1248 91.453 65.4234 90.9462C65.5339 90.7891 65.6348 90.6255 65.7256 90.4562C65.7991 90.3255 65.8808 90.1948 65.9625 90.0642C66.0441 89.9335 66.0523 89.9335 66.1667 89.909C66.2959 89.8819 66.4294 89.8819 66.5587 89.909C66.6943 89.9424 66.815 90.0199 66.9017 90.1295C66.967 90.1295 67.0405 90.1295 67.1385 90.301C67.2357 90.4475 67.323 90.6003 67.3999 90.7584C67.4785 90.8883 67.5129 91.0401 67.4979 91.1912C67.4939 91.3097 67.4775 91.4274 67.4489 91.5424C67.4173 91.6854 67.3591 91.8211 67.2774 91.9426C67.1792 92.0516 67.0992 92.1757 67.0405 92.3101C66.967 92.4653 66.8609 92.6776 66.7138 92.9472C66.5668 93.2167 66.5587 93.4943 66.4933 93.7639C66.4361 94.0279 66.3513 94.2853 66.2402 94.5316C66.1606 94.7783 66.0623 95.0185 65.9461 95.2503C65.8504 95.4306 65.7712 95.6192 65.7093 95.8138C65.5634 96.2937 65.3917 96.7654 65.1948 97.2267C64.9851 97.7034 64.8104 98.1947 64.6721 98.6968C64.5251 99.2031 64.3862 99.7177 64.2392 100.249C64.0944 100.779 63.8831 101.29 63.6104 101.768C63.4485 102.038 63.3429 102.338 63.3 102.65C63.2347 103.001 63.1693 103.36 63.1122 103.711C63.055 104.063 62.8753 104.438 62.7773 104.765C62.7131 104.965 62.6666 105.17 62.6385 105.377C62.5181 105.826 62.428 106.281 62.3689 106.741C62.3327 107.15 62.2219 107.549 62.0423 107.917C62.0268 108.089 61.9855 108.257 61.9198 108.416C61.8902 108.475 61.8449 108.526 61.7888 108.562C61.7327 108.598 61.6679 108.618 61.6012 108.62C61.4016 108.638 61.2004 108.61 61.0132 108.538Z" fill="white"/>
<path d="M65.3796 117C65.2074 116.92 65.0478 116.815 64.9059 116.689C64.7457 116.548 64.608 116.382 64.4976 116.199C64.411 116.064 64.3578 115.91 64.3424 115.75C64.3751 115.418 64.4269 115.088 64.4976 114.762C64.6038 114.223 64.7426 113.578 64.9223 112.818C65.1019 112.058 65.298 111.283 65.5185 110.499C65.739 109.715 65.9595 109.02 66.1963 108.416L66.6129 107.362C66.8956 106.651 67.133 105.923 67.3234 105.182C67.4867 104.643 67.7072 104.022 67.9768 103.336C68.2463 102.65 68.5321 101.948 68.7935 101.253C69.0548 100.559 69.3243 99.9303 69.5122 99.3831C69.7 98.8359 69.8634 98.3949 70.0022 98.0519C70.141 97.7089 70.2146 97.4965 70.2309 97.4149C70.2761 97.2908 70.3455 97.177 70.4351 97.08C70.5301 96.9915 70.631 96.9096 70.7372 96.835C70.8157 96.7765 70.9007 96.7272 70.9904 96.688C71.3661 96.5818 71.6846 96.7452 71.9623 97.1617C72.0646 97.364 72.0851 97.598 72.0195 97.815C71.933 98.1403 71.8183 98.4573 71.6765 98.7624L71.4559 99.3831L72.583 99.1381C72.7708 99.1381 73.0077 99.1381 73.2935 99.1381H74.1103C74.3111 99.1302 74.5121 99.1522 74.7065 99.2035C75.0788 99.1866 75.4472 99.2866 75.76 99.4893C75.971 99.6729 76.1455 99.8945 76.2745 100.143C76.3807 100.249 76.5032 100.388 76.6502 100.567C76.7795 100.713 76.867 100.891 76.9034 101.082C76.9813 101.459 76.9813 101.848 76.9034 102.225C76.8256 102.641 76.6995 103.047 76.5277 103.434C76.3519 103.829 76.1179 104.195 75.8335 104.52C75.5754 104.832 75.2759 105.107 74.9433 105.337C74.6638 105.458 74.3912 105.594 74.1266 105.745C74.1266 105.851 73.8734 106.015 73.4406 106.235C72.9548 106.475 72.4526 106.68 71.9378 106.848C71.4558 107.012 70.9615 107.138 70.4596 107.224C70.3126 107.224 70.1084 107.264 69.8307 107.281C69.6195 107.313 69.4034 107.282 69.21 107.191C69.0537 107.159 68.8954 107.137 68.7363 107.126C68.6546 107.126 68.6138 107.126 68.6138 107.256C68.6138 107.387 68.4423 107.73 68.1728 108.571C67.9033 109.412 67.6174 110.376 67.3561 111.487C67.0947 112.597 66.6374 113.659 66.3842 114.386C66.131 115.113 65.9432 115.644 65.8043 116.02C65.6655 116.395 65.5756 116.624 65.5103 116.755C65.4772 116.841 65.4333 116.924 65.3796 117ZM69.2998 105.435C69.357 105.557 69.5612 105.598 69.9042 105.541C70.3375 105.469 70.7601 105.343 71.1619 105.165C71.6595 104.965 72.1449 104.736 72.6157 104.479C73.0414 104.251 73.4412 103.977 73.8081 103.663C74.2167 103.205 74.5932 102.719 74.9351 102.209C75.2291 101.76 75.27 101.458 75.0658 101.311C74.9089 101.129 74.7078 100.99 74.4817 100.908C74.2556 100.827 74.0124 100.805 73.7754 100.845C72.9498 100.936 72.1561 101.215 71.4559 101.662C71.148 101.752 70.8673 101.918 70.6392 102.144C70.4525 102.364 70.301 102.612 70.19 102.879L69.7164 103.949C69.5735 104.285 69.4481 104.628 69.3407 104.978C69.2963 105.126 69.2824 105.281 69.2998 105.435Z" fill="white"/>
<path d="M80.4935 110.009C80.3267 110.069 80.1459 110.077 79.9742 110.034C79.8026 109.99 79.6478 109.896 79.5298 109.764C79.2614 109.4 79.1155 108.959 79.1133 108.506C79.0794 107.831 79.1427 107.155 79.3011 106.497C79.401 106.259 79.4829 106.013 79.5461 105.762C79.6034 105.574 79.6364 105.379 79.6441 105.182C79.7122 104.871 79.7968 104.563 79.8973 104.26C80.0198 103.851 80.1587 103.443 80.3057 102.994C80.4527 102.544 80.5915 102.177 80.7222 101.818C80.8529 101.458 80.9509 101.254 80.9917 101.172C81.0325 101.091 81.1469 101.099 81.2122 100.952C81.2693 100.812 81.2998 100.662 81.302 100.511C81.3092 100.318 81.3479 100.128 81.4164 99.9473C81.4616 99.787 81.5426 99.639 81.6532 99.5145C81.6564 99.3913 81.6812 99.2697 81.7267 99.1551C81.7716 99.0486 81.7992 98.9355 81.8084 98.8203C81.81 98.7334 81.8354 98.6487 81.8819 98.5753C81.9332 98.5006 81.9616 98.4126 81.9636 98.3221C82.1106 98.0526 82.2984 97.6116 82.5434 97.0235L83.3602 95.0308C83.6378 94.2957 83.9073 93.577 84.1769 92.8665C84.4464 92.1559 84.6261 91.5597 84.7894 91.0615C84.8953 90.7732 84.9719 90.475 85.0181 90.1713C85.0124 90.1031 85.0211 90.0343 85.0436 89.9696C85.0661 89.9049 85.1019 89.8457 85.1487 89.7956C85.2 89.7511 85.2596 89.7173 85.3241 89.6962C85.3887 89.6752 85.4568 89.6673 85.5244 89.6731C85.5881 89.6063 85.6708 89.5607 85.7613 89.5425C85.8482 89.535 85.9357 89.535 86.0226 89.5425L86.529 90.0488C86.6817 90.1758 86.7857 90.3519 86.823 90.547C86.858 90.7657 86.8744 90.987 86.872 91.2085C86.876 91.4517 86.843 91.6941 86.774 91.9273C86.6737 92.2392 86.548 92.5424 86.3983 92.8338L85.5244 94.6877C85.3529 95.1043 85.1814 95.5044 84.9854 95.8638C84.8601 96.072 84.7666 96.2977 84.7077 96.5335C84.6928 96.6636 84.6569 96.7905 84.6015 96.9092C84.528 97.0807 84.4464 97.2849 84.3647 97.5381C84.283 97.7912 84.1605 97.9546 84.0217 98.2731C83.8828 98.5916 83.7195 98.9428 83.5643 99.3103L83.1723 100.25C83.1044 100.396 83.0523 100.549 83.0171 100.707C83.0171 100.789 83.0171 100.87 83.0171 100.952C82.9989 101.049 82.9502 101.138 82.8783 101.205C82.7885 101.205 82.7395 101.319 82.715 101.548C82.6135 102.11 82.4463 102.658 82.2168 103.182L81.2939 106.342C81.0467 107.092 80.9038 107.873 80.8692 108.662C80.8886 108.991 80.8886 109.321 80.8692 109.65C80.8505 109.741 80.8045 109.824 80.7374 109.888C80.6703 109.952 80.5852 109.995 80.4935 110.009Z" fill="white"/>
<path d="M88.4394 109.104C88.2247 109.149 88.005 109.166 87.786 109.153C87.5464 109.146 87.3082 109.113 87.0755 109.055C86.8795 109.006 86.7815 108.949 86.7815 108.884C86.7841 108.863 86.7819 108.842 86.7751 108.822C86.7682 108.802 86.7569 108.783 86.7419 108.768C86.7269 108.753 86.7087 108.742 86.6887 108.735C86.6686 108.728 86.6473 108.726 86.6263 108.729C86.4606 108.573 86.2701 108.446 86.0628 108.353C85.8767 108.069 85.7774 107.737 85.7769 107.398C85.814 106.844 85.9098 106.297 86.0628 105.764C86.1593 105.125 86.3636 104.506 86.6671 103.935C87.0441 103.191 87.4697 102.474 87.9412 101.787C88.4152 101.086 88.945 100.425 89.5256 99.8103C89.9694 99.3138 90.4808 98.8822 91.0447 98.5281C91.3253 98.2407 91.7051 98.0712 92.1064 98.0544C92.5229 98.035 92.9364 98.1341 93.2988 98.3402C93.5367 98.4671 93.7498 98.6358 93.9277 98.8384C94.1412 99.0768 94.3403 99.3277 94.5239 99.5898C94.7017 99.8485 94.8574 100.122 94.9894 100.407C95.0469 100.607 95.0852 100.812 95.1037 101.019C95.1037 101.199 95.1037 101.411 95.1037 101.664C95.1037 101.917 95.0547 102.285 94.9894 102.791C94.8747 103.246 94.7874 103.707 94.7281 104.172C94.6592 104.637 94.621 105.106 94.6137 105.576C94.5587 105.857 94.6112 106.149 94.7607 106.393C94.8914 106.556 95.0956 106.573 95.3651 106.393C95.5865 106.269 95.8384 106.209 96.092 106.221C96.2933 106.22 96.4882 106.292 96.6392 106.426C96.7105 106.5 96.7654 106.589 96.8006 106.686C96.8357 106.783 96.8503 106.886 96.8433 106.989C96.8224 107.281 96.6944 107.554 96.484 107.757C96.2311 108.025 95.9324 108.247 95.6019 108.41C95.2995 108.579 94.9602 108.672 94.6137 108.68C94.4781 108.669 94.3472 108.625 94.2331 108.55C94.119 108.476 94.0253 108.375 93.9604 108.255C93.729 107.937 93.5447 107.588 93.4132 107.218C93.2498 106.818 93.111 106.401 92.9885 106.05L92.8006 105.323L91.4694 106.654C91.1917 106.94 90.9304 107.21 90.6527 107.471C90.47 107.623 90.3055 107.796 90.1627 107.986C90.0196 108.219 89.8202 108.413 89.5828 108.549C89.2226 108.775 88.8393 108.961 88.4394 109.104ZM88.5374 107.259C88.9702 106.986 89.3775 106.674 89.7543 106.328C90.2323 105.906 90.685 105.456 91.11 104.98C91.5009 104.547 91.8663 104.092 92.2044 103.616C92.5249 103.198 92.7988 102.746 93.0211 102.269C93.1957 101.889 93.3298 101.492 93.4213 101.084C93.3248 100.818 93.19 100.568 93.0211 100.341C92.8333 100.08 92.6618 99.941 92.5148 99.9246C92.2259 99.9577 91.9472 100.051 91.6967 100.199C91.4463 100.347 91.2297 100.545 91.061 100.782C90.5313 101.377 90.0324 101.998 89.5664 102.644C89.4848 102.75 89.3704 102.922 89.2234 103.151L88.7987 103.796L88.5374 104.18C88.3993 104.407 88.2791 104.644 88.178 104.89C87.9984 105.274 87.8269 105.666 87.6554 106.05C87.5428 106.222 87.4666 106.415 87.4315 106.617C87.3964 106.819 87.4031 107.026 87.4512 107.226C87.4672 107.298 87.5047 107.363 87.5587 107.412C87.6127 107.462 87.6807 107.494 87.7534 107.504C88.0404 107.516 88.323 107.43 88.5537 107.259H88.5374Z" fill="white"/>
<path d="M102.309 109.73C101.808 109.773 101.304 109.74 100.814 109.632C100.38 109.543 99.9723 109.356 99.6215 109.085C99.3104 108.838 99.0778 108.506 98.9518 108.13C98.8401 107.941 98.7652 107.733 98.7313 107.517C98.7373 107.452 98.7611 107.391 98.8 107.339C98.839 107.287 98.8915 107.247 98.9518 107.223C99.1147 107.223 99.274 107.271 99.4092 107.362C99.5799 107.48 99.7635 107.579 99.9564 107.656C100.272 107.935 100.678 108.092 101.1 108.097C101.523 108.126 101.946 108.05 102.333 107.876C102.717 107.713 102.921 107.501 102.962 107.256C102.949 107.106 102.919 106.958 102.872 106.815C102.807 106.602 102.733 106.382 102.652 106.153C102.125 105.431 101.707 104.636 101.41 103.793C101.18 103.172 101.048 102.519 101.018 101.857C101.031 101.435 101.149 101.022 101.361 100.657C101.592 100.229 101.916 99.8575 102.309 99.5705C102.687 99.1737 103.105 98.8178 103.558 98.5088C104.001 98.1999 104.468 97.9268 104.955 97.692C105.361 97.4884 105.785 97.3217 106.221 97.1938C106.527 97.2023 106.833 97.2323 107.135 97.2837C107.417 97.3147 107.693 97.389 107.952 97.5042C108.242 97.6466 108.474 97.8865 108.605 98.1821C108.786 98.5262 108.867 98.9133 108.842 99.301C108.833 99.4943 108.791 99.6847 108.72 99.8645C108.609 100.149 108.472 100.422 108.311 100.681C108.235 100.9 108.142 101.113 108.034 101.318C107.954 101.448 107.901 101.592 107.878 101.743C107.772 101.972 107.625 102.086 107.454 102.078C107.246 102.05 107.055 101.948 106.915 101.792C106.735 101.607 106.593 101.387 106.498 101.147C106.42 100.899 106.386 100.639 106.4 100.379C106.436 100.15 106.523 99.9328 106.653 99.742C106.882 99.5133 106.996 99.35 106.996 99.2683C106.996 99.1866 106.882 99.1458 106.653 99.1458C106.368 99.1852 106.092 99.2736 105.837 99.4071C105.412 99.6085 105.003 99.8405 104.612 100.101C104.213 100.361 103.841 100.66 103.501 100.992C103.224 101.224 102.987 101.5 102.799 101.808C102.705 102.07 102.666 102.348 102.684 102.625C102.701 102.997 102.77 103.366 102.888 103.719C102.965 104.04 103.11 104.341 103.313 104.601C103.607 105.165 103.86 105.598 104.064 105.916C104.669 107.256 104.832 108.211 104.538 108.799C104.244 109.387 103.501 109.649 102.309 109.73Z" fill="white"/>
<path d="M113.747 111.553C113.471 111.538 113.203 111.461 112.961 111.328C112.719 111.195 112.511 111.01 112.35 110.785C112.092 110.2 112.031 109.546 112.178 108.923C112.296 108.571 112.376 108.207 112.415 107.837C112.415 107.519 112.538 107.314 112.685 107.233C112.832 107.151 112.742 107.012 112.685 106.947C112.703 106.565 112.785 106.19 112.93 105.836C112.971 105.714 113.069 105.469 113.216 105.117C113.109 104.946 113.109 104.815 113.216 104.709L113.542 104.407C113.568 104.388 113.588 104.363 113.602 104.335C113.617 104.307 113.624 104.275 113.624 104.244C113.624 104.212 113.617 104.181 113.602 104.152C113.588 104.124 113.568 104.099 113.542 104.08C113.502 103.999 113.542 103.803 113.698 103.5C113.853 103.198 114.016 102.88 114.204 102.545C114.352 102.284 114.478 102.011 114.58 101.728C114.615 101.576 114.667 101.428 114.735 101.287L115.11 100.413C115.257 100.078 115.396 99.7762 115.535 99.4985L115.796 98.9677C116.009 98.8696 115.927 98.7962 115.551 98.7472C115.155 98.714 114.756 98.714 114.359 98.7472C113.706 98.7472 113.191 98.69 112.807 98.6491C112.473 98.6229 112.148 98.5284 111.852 98.3715C111.599 98.0774 111.509 97.8569 111.582 97.7263C111.656 97.5956 111.901 97.5139 112.317 97.4894H112.962C113.173 97.4854 113.383 97.4691 113.591 97.4404L114.825 97.3016L116.458 97.1791L116.556 96.6482C116.719 96.3705 116.858 96.1255 116.973 95.905C117.09 95.6896 117.191 95.4658 117.275 95.2353C117.358 95.0017 117.421 94.7612 117.463 94.5166C117.764 94.0122 117.977 93.4597 118.091 92.8832C118.336 92.4666 118.557 92.0665 118.745 91.7398C118.933 91.4131 119.047 91.1762 119.088 91.0946C119.222 90.9575 119.392 90.8613 119.578 90.8169C119.802 90.8758 120.01 90.9816 120.19 91.1272C120.373 91.229 120.541 91.3554 120.689 91.5029C120.82 91.6298 120.918 91.7868 120.974 91.9603C120.991 92.0453 120.981 92.1333 120.948 92.2132C120.915 92.293 120.858 92.3613 120.787 92.4095C120.715 92.5579 120.652 92.7107 120.599 92.8668C120.525 93.0454 120.463 93.2281 120.411 93.414C120.235 93.6347 120.081 93.8728 119.954 94.1246C119.778 94.428 119.656 94.7596 119.594 95.1046C119.423 95.464 119.267 95.7825 119.12 96.0602C118.973 96.3379 118.859 96.4849 118.777 96.4849C118.78 96.5301 118.793 96.5743 118.813 96.6146C118.834 96.6548 118.863 96.6903 118.899 96.7187C118.934 96.7471 118.975 96.7679 119.019 96.7797C119.063 96.7914 119.108 96.7939 119.153 96.787L120.19 96.738C120.466 96.7158 120.739 96.6693 121.007 96.5992C121.1 96.5722 121.197 96.5648 121.292 96.5774C121.388 96.5901 121.48 96.6225 121.562 96.6727C121.668 96.8287 121.751 96.9993 121.807 97.1791C121.871 97.3428 121.888 97.5208 121.856 97.6936C121.844 97.7669 121.813 97.8356 121.765 97.8929C121.718 97.9502 121.657 97.9942 121.587 98.0203C121.368 98.0495 121.154 98.1072 120.95 98.1918C120.56 98.3203 120.152 98.3891 119.741 98.396L118.108 98.5593L117.569 99.621C117.422 99.8905 117.299 100.136 117.193 100.356C117.138 100.496 117.064 100.628 116.973 100.748C116.95 100.948 116.883 101.141 116.777 101.312C116.638 101.565 116.499 101.834 116.352 102.128C116.162 102.613 115.941 103.085 115.69 103.541C115.609 103.541 115.568 103.598 115.568 103.729C115.623 103.819 115.643 103.926 115.625 104.029C115.607 104.133 115.552 104.227 115.47 104.293C115.314 104.411 115.186 104.561 115.094 104.734C115.134 104.774 115.16 104.825 115.168 104.881C115.177 104.937 115.168 104.994 115.143 105.044C115.083 105.184 115.015 105.32 114.939 105.452C114.923 105.697 114.877 105.938 114.8 106.171C114.702 106.481 114.604 106.775 114.498 107.053C114.506 107.294 114.528 107.534 114.563 107.772C114.563 107.878 114.637 107.919 114.718 107.894C114.812 107.919 114.911 107.919 115.004 107.894C115.086 107.886 115.168 107.886 115.249 107.894C115.543 107.772 115.388 108.507 114.784 110.091C114.449 110.614 114.22 110.998 114.09 111.235C113.959 111.471 113.845 111.553 113.747 111.553Z" fill="white"/>
</g>
<defs>
<filter id="filter0_d_433_992" x="0" y="0" width="139.359" height="125" filterUnits="userSpaceOnUse" color-interpolation-filters="sRGB">
<feFlood flood-opacity="0" result="BackgroundImageFix"/>
<feColorMatrix in="SourceAlpha" type="matrix" values="0 0 0 0 0 0 0 0 0 0 0 0 0 0 0 0 0 0 127 0" result="hardAlpha"/>
<feOffset dy="4"/>
<feGaussianBlur stdDeviation="2"/>
<feComposite in2="hardAlpha" operator="out"/>
<feColorMatrix type="matrix" values="0 0 0 0 0 0 0 0 0 0 0 0 0 0 0 0 0 0 0.2 0"/>
<feBlend mode="normal" in2="BackgroundImageFix" result="effect1_dropShadow_433_992"/>
<feBlend mode="normal" in="SourceGraphic" in2="effect1_dropShadow_433_992" result="shape"/>
</filter>
</defs>
</svg>
