<svg width="70" height="16" viewBox="0 0 70 16" fill="none" xmlns="http://www.w3.org/2000/svg">
<path d="M68 0C69.1046 0 70 0.895431 70 2V4.7998C68.3432 4.7998 67.0001 6.14306 67 7.7998C67 9.45666 68.3431 10.7998 70 10.7998V14C70 15.1046 69.1046 16 68 16H2C0.895431 16 0 15.1046 0 14V10.7998C1.65685 10.7998 3 9.45666 3 7.7998C2.99987 6.14306 1.65677 4.7998 0 4.7998V2C0 0.895431 0.895431 6.0399e-09 2 0H68Z" fill="url(#paint0_linear_409_750)"/>
<path d="M11.152 8.224L12.88 11H11.856L10.6 8.984L9.424 11H8.408L10.136 8.224L8.4 5.44H9.424L10.688 7.472L11.872 5.44H12.888L11.152 8.224Z" fill="#D70015"/>
<path d="M13.5773 8.792C13.5773 8.33867 13.6679 7.94133 13.8493 7.6C14.0359 7.25333 14.2919 6.98667 14.6173 6.8C14.9426 6.61333 15.3159 6.52 15.7373 6.52C16.2706 6.52 16.7106 6.648 17.0573 6.904C17.4093 7.15467 17.6466 7.51467 17.7693 7.984H16.7853C16.7053 7.76533 16.5773 7.59467 16.4013 7.472C16.2253 7.34933 16.0039 7.288 15.7373 7.288C15.3639 7.288 15.0653 7.42133 14.8413 7.688C14.6226 7.94933 14.5133 8.31733 14.5133 8.792C14.5133 9.26667 14.6226 9.63733 14.8413 9.904C15.0653 10.1707 15.3639 10.304 15.7373 10.304C16.2653 10.304 16.6146 10.072 16.7853 9.608H17.7693C17.6413 10.056 17.4013 10.4133 17.0493 10.68C16.6973 10.9413 16.2599 11.072 15.7373 11.072C15.3159 11.072 14.9426 10.9787 14.6173 10.792C14.2919 10.6 14.0359 10.3333 13.8493 9.992C13.6679 9.64533 13.5773 9.24533 13.5773 8.792ZM19.5901 5.08V11H18.6781V5.08H19.5901ZM24.7795 6.592V11H23.8675V10.48C23.7235 10.6613 23.5342 10.8053 23.2995 10.912C23.0702 11.0133 22.8248 11.064 22.5635 11.064C22.2168 11.064 21.9048 10.992 21.6275 10.848C21.3555 10.704 21.1395 10.4907 20.9795 10.208C20.8248 9.92533 20.7475 9.584 20.7475 9.184V6.592H21.6515V9.048C21.6515 9.44267 21.7502 9.74667 21.9475 9.96C22.1448 10.168 22.4142 10.272 22.7555 10.272C23.0968 10.272 23.3662 10.168 23.5635 9.96C23.7662 9.74667 23.8675 9.44267 23.8675 9.048V6.592H24.7795ZM27.5828 11.072C27.2361 11.072 26.9241 11.0107 26.6468 10.888C26.3748 10.76 26.1588 10.5893 25.9988 10.376C25.8388 10.1573 25.7535 9.91467 25.7428 9.648H26.6868C26.7028 9.83467 26.7908 9.992 26.9508 10.12C27.1161 10.2427 27.3215 10.304 27.5668 10.304C27.8228 10.304 28.0201 10.256 28.1588 10.16C28.3028 10.0587 28.3748 9.93067 28.3748 9.776C28.3748 9.61067 28.2948 9.488 28.1348 9.408C27.9801 9.328 27.7321 9.24 27.3908 9.144C27.0601 9.05333 26.7908 8.96533 26.5828 8.88C26.3748 8.79467 26.1935 8.664 26.0388 8.488C25.8895 8.312 25.8148 8.08 25.8148 7.792C25.8148 7.55733 25.8841 7.344 26.0228 7.152C26.1615 6.95467 26.3588 6.8 26.6148 6.688C26.8761 6.576 27.1748 6.52 27.5108 6.52C28.0121 6.52 28.4148 6.648 28.7188 6.904C29.0281 7.15467 29.1935 7.49867 29.2148 7.936H28.3028C28.2868 7.73867 28.2068 7.58133 28.0628 7.464C27.9188 7.34667 27.7241 7.288 27.4788 7.288C27.2388 7.288 27.0548 7.33333 26.9268 7.424C26.7988 7.51467 26.7348 7.63467 26.7348 7.784C26.7348 7.90133 26.7775 8 26.8628 8.08C26.9481 8.16 27.0521 8.224 27.1748 8.272C27.2975 8.31467 27.4788 8.37067 27.7188 8.44C28.0388 8.52533 28.3001 8.61333 28.5028 8.704C28.7108 8.78933 28.8895 8.91733 29.0388 9.088C29.1881 9.25867 29.2655 9.48533 29.2708 9.768C29.2708 10.0187 29.2015 10.2427 29.0628 10.44C28.9241 10.6373 28.7268 10.792 28.4708 10.904C28.2201 11.016 27.9241 11.072 27.5828 11.072ZM30.7203 6.008C30.5549 6.008 30.4163 5.952 30.3043 5.84C30.1923 5.728 30.1363 5.58933 30.1363 5.424C30.1363 5.25867 30.1923 5.12 30.3043 5.008C30.4163 4.896 30.5549 4.84 30.7203 4.84C30.8803 4.84 31.0163 4.896 31.1283 5.008C31.2403 5.12 31.2963 5.25867 31.2963 5.424C31.2963 5.58933 31.2403 5.728 31.1283 5.84C31.0163 5.952 30.8803 6.008 30.7203 6.008ZM31.1683 6.592V11H30.2563V6.592H31.1683ZM34.0696 10.184L35.3176 6.592H36.2856L34.6056 11H33.5176L31.8456 6.592H32.8216L34.0696 10.184ZM41.015 8.688C41.015 8.85333 41.0043 9.00267 40.983 9.136H37.615C37.6417 9.488 37.7723 9.77067 38.007 9.984C38.2417 10.1973 38.5297 10.304 38.871 10.304C39.3617 10.304 39.7083 10.0987 39.911 9.688H40.895C40.7617 10.0933 40.519 10.4267 40.167 10.688C39.8203 10.944 39.3883 11.072 38.871 11.072C38.4497 11.072 38.071 10.9787 37.735 10.792C37.4043 10.6 37.143 10.3333 36.951 9.992C36.7643 9.64533 36.671 9.24533 36.671 8.792C36.671 8.33867 36.7617 7.94133 36.943 7.6C37.1297 7.25333 37.3883 6.98667 37.719 6.8C38.055 6.61333 38.439 6.52 38.871 6.52C39.287 6.52 39.6577 6.61067 39.983 6.792C40.3083 6.97333 40.5617 7.22933 40.743 7.56C40.9243 7.88533 41.015 8.26133 41.015 8.688ZM40.063 8.4C40.0577 8.064 39.9377 7.79467 39.703 7.592C39.4683 7.38933 39.1777 7.288 38.831 7.288C38.5163 7.288 38.247 7.38933 38.023 7.592C37.799 7.78933 37.6657 8.05867 37.623 8.4H40.063ZM45.8066 5.44C46.3986 5.44 46.916 5.55467 47.3586 5.784C47.8066 6.008 48.1506 6.33333 48.3906 6.76C48.636 7.18133 48.7586 7.67467 48.7586 8.24C48.7586 8.80533 48.636 9.296 48.3906 9.712C48.1506 10.128 47.8066 10.448 47.3586 10.672C46.916 10.8907 46.3986 11 45.8066 11H43.9906V5.44H45.8066ZM45.8066 10.256C46.4573 10.256 46.956 10.08 47.3026 9.728C47.6493 9.376 47.8226 8.88 47.8226 8.24C47.8226 7.59467 47.6493 7.09067 47.3026 6.728C46.956 6.36533 46.4573 6.184 45.8066 6.184H44.9026V10.256H45.8066ZM53.7025 8.688C53.7025 8.85333 53.6918 9.00267 53.6705 9.136H50.3025C50.3292 9.488 50.4598 9.77067 50.6945 9.984C50.9292 10.1973 51.2172 10.304 51.5585 10.304C52.0492 10.304 52.3958 10.0987 52.5985 9.688H53.5825C53.4492 10.0933 53.2065 10.4267 52.8545 10.688C52.5078 10.944 52.0758 11.072 51.5585 11.072C51.1372 11.072 50.7585 10.9787 50.4225 10.792C50.0918 10.6 49.8305 10.3333 49.6385 9.992C49.4518 9.64533 49.3585 9.24533 49.3585 8.792C49.3585 8.33867 49.4492 7.94133 49.6305 7.6C49.8172 7.25333 50.0758 6.98667 50.4065 6.8C50.7425 6.61333 51.1265 6.52 51.5585 6.52C51.9745 6.52 52.3452 6.61067 52.6705 6.792C52.9958 6.97333 53.2492 7.22933 53.4305 7.56C53.6118 7.88533 53.7025 8.26133 53.7025 8.688ZM52.7505 8.4C52.7452 8.064 52.6252 7.79467 52.3905 7.592C52.1558 7.38933 51.8652 7.288 51.5185 7.288C51.2038 7.288 50.9345 7.38933 50.7105 7.592C50.4865 7.78933 50.3532 8.05867 50.3105 8.4H52.7505ZM54.296 8.776C54.296 8.33333 54.3867 7.94133 54.568 7.6C54.7547 7.25867 55.0053 6.99467 55.32 6.808C55.64 6.616 55.992 6.52 56.376 6.52C56.7227 6.52 57.024 6.58933 57.28 6.728C57.5413 6.86133 57.7493 7.02933 57.904 7.232V6.592H58.824V11H57.904V10.344C57.7493 10.552 57.5387 10.7253 57.272 10.864C57.0053 11.0027 56.7013 11.072 56.36 11.072C55.9813 11.072 55.6347 10.976 55.32 10.784C55.0053 10.5867 54.7547 10.3147 54.568 9.968C54.3867 9.616 54.296 9.21867 54.296 8.776ZM57.904 8.792C57.904 8.488 57.84 8.224 57.712 8C57.5893 7.776 57.4267 7.60533 57.224 7.488C57.0213 7.37067 56.8027 7.312 56.568 7.312C56.3333 7.312 56.1147 7.37067 55.912 7.488C55.7093 7.6 55.544 7.768 55.416 7.992C55.2933 8.21067 55.232 8.472 55.232 8.776C55.232 9.08 55.2933 9.34667 55.416 9.576C55.544 9.80533 55.7093 9.98133 55.912 10.104C56.12 10.2213 56.3387 10.28 56.568 10.28C56.8027 10.28 57.0213 10.2213 57.224 10.104C57.4267 9.98667 57.5893 9.816 57.712 9.592C57.84 9.36267 57.904 9.096 57.904 8.792ZM60.9339 5.08V11H60.0219V5.08H60.9339Z" fill="white"/>
<defs>
<linearGradient id="paint0_linear_409_750" x1="-8" y1="8.00001" x2="71.5" y2="8" gradientUnits="userSpaceOnUse">
<stop stop-color="#252525"/>
<stop offset="1" stop-color="#252525" stop-opacity="0.65"/>
</linearGradient>
</defs>
</svg>
