<svg width="158" height="36" viewBox="0 0 158 36" fill="none" xmlns="http://www.w3.org/2000/svg">
<path d="M8.688 17.648L13.824 26H11.352L7.344 19.472L3.528 26H1.104L6.216 17.648L1.08 9.272H3.528L7.56 15.824L11.4 9.272H13.848L8.688 17.648Z" fill="#E13B30"/>
<path d="M15.9383 19.4C15.9383 18.04 16.2103 16.856 16.7543 15.848C17.2983 14.824 18.0503 14.032 19.0103 13.472C19.9863 12.912 21.0983 12.632 22.3463 12.632C23.9623 12.632 25.2903 13.024 26.3303 13.808C27.3863 14.592 28.0823 15.68 28.4183 17.072H26.0663C25.8423 16.272 25.4023 15.64 24.7463 15.176C24.1063 14.712 23.3063 14.48 22.3463 14.48C21.0983 14.48 20.0903 14.912 19.3223 15.776C18.5543 16.624 18.1703 17.832 18.1703 19.4C18.1703 20.984 18.5543 22.208 19.3223 23.072C20.0903 23.936 21.0983 24.368 22.3463 24.368C23.3063 24.368 24.1063 24.144 24.7463 23.696C25.3863 23.248 25.8263 22.608 26.0663 21.776H28.4183C28.0663 23.12 27.3623 24.2 26.3063 25.016C25.2503 25.816 23.9303 26.216 22.3463 26.216C21.0983 26.216 19.9863 25.936 19.0103 25.376C18.0503 24.816 17.2983 24.024 16.7543 23C16.2103 21.976 15.9383 20.776 15.9383 19.4ZM33.5164 8.24V26H31.3324V8.24H33.5164ZM48.9026 12.848V26H46.7186V24.056C46.3026 24.728 45.7186 25.256 44.9666 25.64C44.2306 26.008 43.4146 26.192 42.5186 26.192C41.4946 26.192 40.5746 25.984 39.7586 25.568C38.9426 25.136 38.2946 24.496 37.8146 23.648C37.3506 22.8 37.1186 21.768 37.1186 20.552V12.848H39.2786V20.264C39.2786 21.56 39.6066 22.56 40.2626 23.264C40.9186 23.952 41.8146 24.296 42.9506 24.296C44.1186 24.296 45.0386 23.936 45.7106 23.216C46.3826 22.496 46.7186 21.448 46.7186 20.072V12.848H48.9026ZM57.2462 26.216C56.2382 26.216 55.3342 26.048 54.5342 25.712C53.7342 25.36 53.1022 24.88 52.6382 24.272C52.1742 23.648 51.9182 22.936 51.8702 22.136H54.1262C54.1902 22.792 54.4942 23.328 55.0382 23.744C55.5982 24.16 56.3262 24.368 57.2222 24.368C58.0542 24.368 58.7102 24.184 59.1902 23.816C59.6702 23.448 59.9102 22.984 59.9102 22.424C59.9102 21.848 59.6542 21.424 59.1422 21.152C58.6302 20.864 57.8382 20.584 56.7662 20.312C55.7902 20.056 54.9902 19.8 54.3662 19.544C53.7582 19.272 53.2302 18.88 52.7822 18.368C52.3502 17.84 52.1342 17.152 52.1342 16.304C52.1342 15.632 52.3342 15.016 52.7342 14.456C53.1342 13.896 53.7022 13.456 54.4382 13.136C55.1742 12.8 56.0142 12.632 56.9582 12.632C58.4142 12.632 59.5902 13 60.4862 13.736C61.3822 14.472 61.8622 15.48 61.9262 16.76H59.7422C59.6942 16.072 59.4142 15.52 58.9022 15.104C58.4062 14.688 57.7342 14.48 56.8862 14.48C56.1022 14.48 55.4782 14.648 55.0142 14.984C54.5502 15.32 54.3182 15.76 54.3182 16.304C54.3182 16.736 54.4542 17.096 54.7262 17.384C55.0142 17.656 55.3662 17.88 55.7822 18.056C56.2142 18.216 56.8062 18.4 57.5582 18.608C58.5022 18.864 59.2702 19.12 59.8622 19.376C60.4542 19.616 60.9582 19.984 61.3742 20.48C61.8062 20.976 62.0302 21.624 62.0462 22.424C62.0462 23.144 61.8462 23.792 61.4462 24.368C61.0462 24.944 60.4782 25.4 59.7422 25.736C59.0222 26.056 58.1902 26.216 57.2462 26.216ZM66.2573 10.712C65.8413 10.712 65.4893 10.568 65.2013 10.28C64.9133 9.992 64.7693 9.64 64.7693 9.224C64.7693 8.808 64.9133 8.456 65.2013 8.168C65.4893 7.88 65.8413 7.736 66.2573 7.736C66.6573 7.736 66.9933 7.88 67.2653 8.168C67.5533 8.456 67.6973 8.808 67.6973 9.224C67.6973 9.64 67.5533 9.992 67.2653 10.28C66.9933 10.568 66.6573 10.712 66.2573 10.712ZM67.3133 12.848V26H65.1293V12.848H67.3133ZM75.9315 23.984L80.0115 12.848H82.3395L77.1795 26H74.6355L69.4755 12.848H71.8275L75.9315 23.984ZM96.4886 18.92C96.4886 19.336 96.4646 19.776 96.4166 20.24H85.9046C85.9846 21.536 86.4246 22.552 87.2246 23.288C88.0406 24.008 89.0246 24.368 90.1766 24.368C91.1206 24.368 91.9046 24.152 92.5286 23.72C93.1686 23.272 93.6166 22.68 93.8726 21.944H96.2246C95.8726 23.208 95.1686 24.24 94.1126 25.04C93.0566 25.824 91.7446 26.216 90.1766 26.216C88.9286 26.216 87.8086 25.936 86.8166 25.376C85.8406 24.816 85.0726 24.024 84.5126 23C83.9526 21.96 83.6726 20.76 83.6726 19.4C83.6726 18.04 83.9446 16.848 84.4886 15.824C85.0326 14.8 85.7926 14.016 86.7686 13.472C87.7606 12.912 88.8966 12.632 90.1766 12.632C91.4246 12.632 92.5286 12.904 93.4886 13.448C94.4486 13.992 95.1846 14.744 95.6966 15.704C96.2246 16.648 96.4886 17.72 96.4886 18.92ZM94.2326 18.464C94.2326 17.632 94.0486 16.92 93.6806 16.328C93.3126 15.72 92.8086 15.264 92.1686 14.96C91.5446 14.64 90.8486 14.48 90.0806 14.48C88.9766 14.48 88.0326 14.832 87.2486 15.536C86.4806 16.24 86.0406 17.216 85.9286 18.464H94.2326ZM110.978 9.272C112.802 9.272 114.378 9.616 115.706 10.304C117.05 10.976 118.074 11.944 118.778 13.208C119.498 14.472 119.858 15.96 119.858 17.672C119.858 19.384 119.498 20.872 118.778 22.136C118.074 23.384 117.05 24.344 115.706 25.016C114.378 25.672 112.802 26 110.978 26H105.77V9.272H110.978ZM110.978 24.2C113.138 24.2 114.786 23.632 115.922 22.496C117.058 21.344 117.626 19.736 117.626 17.672C117.626 15.592 117.05 13.968 115.898 12.8C114.762 11.632 113.122 11.048 110.978 11.048H107.954V24.2H110.978ZM134.739 18.92C134.739 19.336 134.715 19.776 134.667 20.24H124.155C124.235 21.536 124.675 22.552 125.475 23.288C126.291 24.008 127.275 24.368 128.427 24.368C129.371 24.368 130.155 24.152 130.779 23.72C131.419 23.272 131.867 22.68 132.123 21.944H134.475C134.123 23.208 133.419 24.24 132.363 25.04C131.307 25.824 129.995 26.216 128.427 26.216C127.179 26.216 126.059 25.936 125.067 25.376C124.091 24.816 123.323 24.024 122.763 23C122.203 21.96 121.923 20.76 121.923 19.4C121.923 18.04 122.195 16.848 122.739 15.824C123.283 14.8 124.043 14.016 125.019 13.472C126.011 12.912 127.147 12.632 128.427 12.632C129.675 12.632 130.779 12.904 131.739 13.448C132.699 13.992 133.435 14.744 133.947 15.704C134.475 16.648 134.739 17.72 134.739 18.92ZM132.483 18.464C132.483 17.632 132.299 16.92 131.931 16.328C131.563 15.72 131.059 15.264 130.419 14.96C129.795 14.64 129.099 14.48 128.331 14.48C127.227 14.48 126.283 14.832 125.499 15.536C124.731 16.24 124.291 17.216 124.179 18.464H132.483ZM136.805 19.376C136.805 18.032 137.077 16.856 137.621 15.848C138.165 14.824 138.909 14.032 139.853 13.472C140.813 12.912 141.877 12.632 143.045 12.632C144.197 12.632 145.197 12.88 146.045 13.376C146.893 13.872 147.525 14.496 147.941 15.248V12.848H150.149V26H147.941V23.552C147.509 24.32 146.861 24.96 145.997 25.472C145.149 25.968 144.157 26.216 143.021 26.216C141.853 26.216 140.797 25.928 139.853 25.352C138.909 24.776 138.165 23.968 137.621 22.928C137.077 21.888 136.805 20.704 136.805 19.376ZM147.941 19.4C147.941 18.408 147.741 17.544 147.341 16.808C146.941 16.072 146.397 15.512 145.709 15.128C145.037 14.728 144.293 14.528 143.477 14.528C142.661 14.528 141.917 14.72 141.245 15.104C140.573 15.488 140.037 16.048 139.637 16.784C139.237 17.52 139.037 18.384 139.037 19.376C139.037 20.384 139.237 21.264 139.637 22.016C140.037 22.752 140.573 23.32 141.245 23.72C141.917 24.104 142.661 24.296 143.477 24.296C144.293 24.296 145.037 24.104 145.709 23.72C146.397 23.32 146.941 22.752 147.341 22.016C147.741 21.264 147.941 20.392 147.941 19.4ZM156.024 8.24V26H153.84V8.24H156.024Z" fill="white"/>
</svg>
