<svg width="155" height="30" viewBox="0 0 155 30" fill="none" xmlns="http://www.w3.org/2000/svg">
<path d="M52.1161 14.9581L57.0031 22.7486H54.6882L50.9158 16.7172L47.3149 22.7486H45L49.887 14.9581L45 7.16748H47.3149L51.173 13.2827L54.6882 7.25125H57.0031L52.1161 14.9581Z" fill="#E04132"/>
<path d="M62.2333 22.3298C61.3759 21.9948 60.7757 21.4921 60.2613 20.822C59.7469 20.1518 59.5754 19.3979 59.4897 18.5602H61.7188C61.8046 19.3141 62.0618 19.9005 62.662 20.4031C63.1764 20.9058 63.948 21.1571 65.0626 21.1571C66.0914 21.1571 66.863 20.9058 67.3775 20.4031C67.9776 19.9005 68.2348 19.3141 68.2348 18.5602C68.2348 17.9738 68.0633 17.4712 67.7204 17.1361C67.3775 16.801 66.9488 16.466 66.4344 16.2984C65.9199 16.1309 65.234 15.8796 64.3767 15.712C63.3478 15.4607 62.4905 15.2094 61.8903 14.8743C61.2902 14.623 60.69 14.2042 60.2613 13.6178C59.8326 13.0314 59.5754 12.2775 59.5754 11.2723C59.5754 10.4346 59.8326 9.68063 60.2613 9.01047C60.69 8.34031 61.2902 7.8377 62.1475 7.50262C62.9192 7.16754 63.8623 7 64.8911 7C66.3486 7 67.6347 7.33508 68.5778 8.08901C69.5209 8.84293 70.0353 9.7644 70.2068 11.0209H67.8919C67.8061 10.4346 67.4632 9.93194 66.9488 9.42932C66.3486 9.01047 65.6627 8.75916 64.7196 8.75916C63.8623 8.75916 63.1764 9.01047 62.5762 9.42932C62.0618 9.84817 61.7188 10.5183 61.7188 11.2723C61.7188 11.8586 61.8903 12.2775 62.2333 12.6963C62.5762 13.0314 63.0049 13.3665 63.4336 13.534C63.948 13.7016 64.5482 13.9529 65.4913 14.2042C66.5201 14.4555 67.3775 14.7906 68.0633 15.0419C68.6635 15.2932 69.2637 15.712 69.6923 16.2984C70.121 16.8848 70.3782 17.6387 70.3782 18.644C70.3782 19.3979 70.2068 20.1518 69.7781 20.822C69.3494 21.4921 68.7492 21.9948 67.9776 22.4136C67.206 22.8325 66.2629 23 65.1483 23C64.0337 22.9162 63.0906 22.7487 62.2333 22.3298Z" fill="#252525"/>
<path d="M75.6937 7.25122V17.0523C75.6937 18.4763 76.0366 19.4816 76.7225 20.1517C77.4084 20.8219 78.3515 21.157 79.6375 21.157C80.8379 21.157 81.781 20.8219 82.4669 20.1517C83.1527 19.4816 83.4957 18.4763 83.4957 17.0523V7.25122H85.5534V17.0523C85.5534 18.3088 85.2962 19.3978 84.7817 20.3193C84.2673 21.2407 83.4957 21.8271 82.6383 22.3298C81.6952 22.6648 80.6664 22.9161 79.5518 22.9161C78.4372 22.9161 77.4084 22.6648 76.4653 22.246C75.5222 21.8271 74.8363 21.157 74.3219 20.2355C73.8932 19.3978 73.5503 18.3088 73.5503 17.0523V7.25122H75.6937Z" fill="#252525"/>
<path d="M97.6421 22.7486L93.8697 16.3821H91.3834V22.7486H89.3257V7.25122H94.4699C95.6702 7.25122 96.699 7.41876 97.5564 7.83761C98.4137 8.25646 99.0139 8.75907 99.4426 9.42923C99.8713 10.0994 100.043 10.8533 100.043 11.7748C100.043 12.8638 99.6998 13.7853 99.0996 14.6229C98.4995 15.4606 97.5564 15.9633 96.2703 16.2146L100.3 22.7486H97.6421ZM91.3834 14.7905H94.4699C95.5844 14.7905 96.4418 14.5392 97.042 13.9528C97.6421 13.4502 97.8993 12.6962 97.8993 11.7748C97.8993 10.8533 97.6421 10.0994 97.042 9.59677C96.5275 9.09415 95.6702 8.84284 94.4699 8.84284H91.3834V14.7905Z" fill="#252525"/>
<path d="M112.389 7.25122V8.92661H105.444V14.2041H111.017V15.8795H105.444V22.9161H103.387V7.25122H112.389Z" fill="#252525"/>
<path d="M123.449 19.314H116.504L115.218 22.7486H112.989L118.733 7.33496H121.134L126.878 22.7486H124.649L123.449 19.314ZM122.849 17.6386L119.934 9.76428L117.019 17.6386H122.849Z" fill="#252525"/>
<path d="M128.85 10.8534C129.536 9.68063 130.479 8.67539 131.68 8.00524C132.88 7.33508 134.252 7 135.709 7C137.424 7 138.967 7.41885 140.253 8.25654C141.539 9.09424 142.482 10.267 143.083 11.7749H140.596C140.167 10.8534 139.482 10.0995 138.71 9.59686C137.853 9.09424 136.909 8.84293 135.709 8.84293C134.595 8.84293 133.566 9.09424 132.708 9.59686C131.851 10.0995 131.165 10.8534 130.651 11.7749C130.136 12.6963 129.879 13.7853 129.879 15.0419C129.879 16.2984 130.136 17.3874 130.651 18.3089C131.165 19.2304 131.851 19.9843 132.708 20.4869C133.566 20.9895 134.595 21.2408 135.709 21.2408C136.824 21.2408 137.853 20.9895 138.71 20.4869C139.567 19.9843 140.167 19.2304 140.596 18.3089H143.083C142.482 19.8168 141.539 20.9058 140.253 21.7435C138.967 22.5812 137.424 23 135.709 23C134.252 23 132.88 22.6649 131.68 21.9948C130.479 21.3246 129.536 20.4031 128.85 19.1466C128.164 17.9738 127.821 16.5497 127.821 15.0419C127.821 13.4503 128.164 12.1099 128.85 10.8534Z" fill="#252525"/>
<path d="M148.484 8.84287V14.0366H154.314V15.712H148.484V21.0732H155V22.7486H146.426V7.16748H155V8.84287H148.484Z" fill="#252525"/>
<path d="M22.7256 13.2882C23.668 14.2297 23.668 15.6847 22.7256 16.6262C20.8407 18.5093 18.2704 21.077 17.4993 21.8474L16.1285 23.2168L10.0455 29.2939C9.10308 30.2354 7.64659 30.2354 6.70415 29.2939L0.706827 23.3024C-0.235609 22.3609 -0.235609 20.9058 0.706827 19.9643L5.67604 15L0.706827 10.0357C-0.235609 9.09415 -0.235609 7.63909 0.706827 6.69758L6.70415 0.706134C7.64659 -0.235378 9.10308 -0.235378 10.0455 0.706134L15.1861 5.84166L13.8153 7.21113L8.41767 1.73324L1.82062 8.32382L6.78983 13.2882C7.73226 14.2297 7.73226 15.6847 6.78983 16.6262L1.82062 21.6762L8.41767 28.2668L14.8434 21.8474C16.5569 20.1355 19.9839 16.7118 21.7831 14.9144C21.5261 14.6576 17.1566 10.2924 16.9853 10.1213L18.3561 8.75178C18.6131 9.17974 21.012 11.5763 22.7256 13.2882Z" fill="#252525"/>
<path d="M9.44585 16.7119C8.50341 15.7704 8.50341 14.2298 9.44585 13.2883C11.245 11.4908 13.8153 8.92307 14.5864 8.15274L15.9572 6.78327L21.9545 0.791827C22.897 -0.149685 24.4392 -0.149685 25.3816 0.791827L31.2932 6.69768C32.2357 7.63919 32.2357 9.17984 31.2932 10.1214L26.4097 15.0001L31.2932 19.8788C32.2357 20.8204 32.2357 22.361 31.2932 23.3025L25.3816 29.2084C24.4392 30.1499 22.897 30.1499 21.9545 29.2084L16.814 24.0729L18.1848 22.7034L23.6681 28.1813L30.3508 21.5051L25.4673 16.6263C24.5248 15.6848 24.5248 14.1442 25.4673 13.2027L30.3508 8.32393L23.7537 1.73334L17.328 8.15274C15.6145 9.86458 12.1875 13.2883 10.3883 15.0857C10.6453 15.3425 15.0148 19.7077 15.1861 19.8788L13.8153 21.0771C13.5583 20.8204 11.1594 18.4238 9.44585 16.7119Z" fill="#252525"/>
<path d="M19.1357 14.6747L16.5643 12.1926C16.3072 11.9358 15.8786 11.9358 15.5357 12.1926L13.05 14.6747C12.7929 14.9315 12.7929 15.3595 13.05 15.7019L15.5357 18.184C15.7929 18.4408 16.2215 18.4408 16.5643 18.184L19.05 15.7019C19.3929 15.4451 19.3929 14.9315 19.1357 14.6747Z" fill="#E04132"/>
</svg>
