<svg width="180" height="35" viewBox="0 0 180 35" fill="none" xmlns="http://www.w3.org/2000/svg">
<g clip-path="url(#clip0_433_1003)">
<path d="M60 17.5002L65.7 26.8002H63L58.6 19.6002L54.4 26.8002H51.7L57.4 17.5002L51.7 8.2002H54.4L58.9 15.5002L63 8.3002H65.7L60 17.5002Z" fill="#E04132"/>
<path d="M71.8 26.3C70.8 25.9 70.1 25.3 69.5 24.5C68.9 23.7 68.7 22.8 68.6 21.8H71.2C71.3 22.7 71.6 23.4 72.3 24C72.9 24.6 73.8 24.9 75.1 24.9C76.3 24.9 77.2 24.6 77.8 24C78.5 23.4 78.8 22.7 78.8 21.8C78.8 21.1 78.6 20.5 78.2 20.1C77.8 19.7 77.3 19.3 76.7 19.1C76.1 18.9 75.3 18.6 74.3 18.4C73.1 18.1 72.1 17.8 71.4 17.4C70.7 17.1 70 16.6 69.5 15.9C69 15.2 68.7 14.3 68.7 13.1C68.7 12.1 69 11.2 69.5 10.4C70 9.6 70.7 9 71.7 8.6C72.6 8.2 73.7 8 74.9 8C76.6 8 78.1 8.4 79.2 9.3C80.3 10.2 80.9 11.3 81.1 12.8H78.4C78.3 12.1 77.9 11.5 77.3 10.9C76.6 10.4 75.8 10.1 74.7 10.1C73.7 10.1 72.9 10.4 72.2 10.9C71.6 11.4 71.2 12.2 71.2 13.1C71.2 13.8 71.4 14.3 71.8 14.8C72.2 15.2 72.7 15.6 73.2 15.8C73.8 16 74.5 16.3 75.6 16.6C76.8 16.9 77.8 17.3 78.6 17.6C79.3 17.9 80 18.4 80.5 19.1C81 19.8 81.3 20.7 81.3 21.9C81.3 22.8 81.1 23.7 80.6 24.5C80.1 25.3 79.4 25.9 78.5 26.4C77.6 26.9 76.5 27.1 75.2 27.1C73.9 27 72.8 26.8 71.8 26.3Z" fill="#F3F1F2"/>
<path d="M87.5 8.30005V20C87.5 21.7 87.9 22.9 88.7 23.7C89.5 24.5 90.6 24.9 92.1 24.9C93.5 24.9 94.6 24.5 95.4 23.7C96.2 22.9 96.6 21.7 96.6 20V8.30005H99V20C99 21.5 98.7 22.8 98.1 23.9C97.5 25 96.6 25.7 95.6 26.3C94.5 26.7 93.3 27 92 27C90.7 27 89.5 26.7001 88.4 26.2001C87.3 25.7001 86.5 24.9 85.9 23.8C85.4 22.8 85 21.5 85 20V8.30005H87.5Z" fill="#F3F1F2"/>
<path d="M113.1 26.8L108.7 19.2H105.8V26.8H103.4V8.30005H109.4C110.8 8.30005 112 8.50005 113 9.00005C114 9.50005 114.7 10.1 115.2 10.9C115.7 11.7 115.9 12.6 115.9 13.7C115.9 15 115.5 16.1 114.8 17.1C114.1 18.1 113 18.7 111.5 19L116.2 26.8H113.1ZM105.8 17.3H109.4C110.7 17.3 111.7 17 112.4 16.3C113.1 15.7 113.4 14.8 113.4 13.7C113.4 12.6 113.1 11.7 112.4 11.1C111.8 10.5 110.8 10.2 109.4 10.2H105.8V17.3Z" fill="#F3F1F2"/>
<path d="M130.3 8.30005V10.3H122.2V16.6H128.7V18.6H122.2V27H119.8V8.30005H130.3Z" fill="#F3F1F2"/>
<path d="M143.2 22.7001H135.1L133.6 26.8001H131L137.7 8.40015H140.5L147.2 26.8001H144.6L143.2 22.7001ZM142.5 20.7001L139.1 11.3001L135.7 20.7001H142.5Z" fill="#F3F1F2"/>
<path d="M149.5 12.6C150.3 11.2 151.4 10 152.8 9.2C154.2 8.4 155.8 8 157.5 8C159.5 8 161.3 8.5 162.8 9.5C164.3 10.5 165.4 11.9 166.1 13.7H163.2C162.7 12.6 161.9 11.7 161 11.1C160 10.5 158.9 10.2 157.5 10.2C156.2 10.2 155 10.5 154 11.1C153 11.7 152.2 12.6 151.6 13.7C151 14.8 150.7 16.1 150.7 17.6C150.7 19.1 151 20.4 151.6 21.5C152.2 22.6 153 23.5 154 24.1C155 24.7 156.2 25 157.5 25C158.8 25 160 24.7 161 24.1C162 23.5 162.7 22.6 163.2 21.5H166.1C165.4 23.3 164.3 24.6 162.8 25.6C161.3 26.6 159.5 27.1 157.5 27.1C155.8 27.1 154.2 26.7 152.8 25.9C151.4 25.1 150.3 24 149.5 22.5C148.7 21.1 148.3 19.4 148.3 17.6C148.3 15.7 148.7 14.1 149.5 12.6Z" fill="#F3F1F2"/>
<path d="M172.4 10.2002V16.4002H179.2V18.4002H172.4V24.8002H180V26.8002H170V8.2002H180V10.2002H172.4Z" fill="#F3F1F2"/>
<path d="M26.4 15.5001C27.5 16.6001 27.5 18.3001 26.4 19.4001C24.2 21.6001 21.2 24.6001 20.3 25.5001L18.7 27.1001L11.6 34.2001C10.5 35.3001 8.8 35.3001 7.7 34.2001L0.7 27.2001C-0.4 26.1001 -0.4 24.4001 0.7 23.3001L6.5 17.5001L0.7 11.7001C-0.4 10.6001 -0.4 8.9001 0.7 7.8001L7.7 0.800098C8.8 -0.299902 10.5 -0.299902 11.6 0.800098L17.6 6.8001L16 8.4001L9.7 2.0001L2 9.7001L7.8 15.5001C8.9 16.6001 8.9 18.3001 7.8 19.4001L2 25.3001L9.7 33.0001L17.2 25.5001C19.2 23.5001 23.2 19.5001 25.3 17.4001C25 17.1001 19.9 12.0001 19.7 11.8001L21.3 10.2001C21.6 10.7001 24.4 13.5001 26.4 15.5001Z" fill="#F3F1F2"/>
<path d="M10.9 19.5002C9.80001 18.4002 9.80001 16.6002 10.9 15.5002C13 13.4002 16 10.4002 16.9 9.5002L18.5 7.9002L25.5 0.900195C26.6 -0.199805 28.4 -0.199805 29.5 0.900195L36.4 7.8002C37.5 8.9002 37.5 10.7002 36.4 11.8002L30.7 17.5002L36.4 23.2002C37.5 24.3002 37.5 26.1002 36.4 27.2002L29.5 34.1002C28.4 35.2002 26.6 35.2002 25.5 34.1002L19.5 28.1002L21.1 26.5002L27.5 32.9002L35.3 25.1002L29.6 19.4002C28.5 18.3002 28.5 16.5002 29.6 15.4002L35.3 9.7002L27.6 2.0002L20.1 9.5002C18.1 11.5002 14.1 15.5002 12 17.6002C12.3 17.9002 17.4 23.0002 17.6 23.2002L16 24.6002C15.7 24.3002 12.9 21.5002 10.9 19.5002Z" fill="#F3F1F2"/>
<path d="M22.2 16.9001L19.2 14.0001C18.9 13.7001 18.4 13.7001 18 14.0001L15.1 16.9001C14.8 17.2001 14.8 17.7001 15.1 18.1001L18 21.0001C18.3 21.3001 18.8 21.3001 19.2 21.0001L22.1 18.1001C22.5 17.8001 22.5 17.2001 22.2 16.9001Z" fill="#E04132"/>
</g>
<defs>
<clipPath id="clip0_433_1003">
<rect width="180" height="35" fill="white"/>
</clipPath>
</defs>
</svg>
