<svg width="30" height="30" viewBox="0 0 30 30" fill="none" xmlns="http://www.w3.org/2000/svg">
<g clip-path="url(#clip0_409_1041)">
<path d="M15 29.9667C23.2843 29.9667 30 23.2584 30 14.9833C30 6.70827 23.2843 0 15 0C6.71573 0 0 6.70827 0 14.9833C0 23.2584 6.71573 29.9667 15 29.9667Z" fill="#E13B30"/>
<path d="M12.6 10.9501L12.5833 29.7835C12.5833 29.7835 14.7 30.2668 17.25 29.7835L17.2333 19.3335L17.3 11.5668C17.3 11.5668 17.4333 10.0501 18.9833 9.9668L21.55 9.83347V6.13347C21.55 6.13347 17.85 5.33347 15.4333 6.43347C13.0166 7.53347 12.7166 9.83347 12.6 10.9501Z" fill="white"/>
<path d="M8.79999 14.9L8.81665 19.35L20.7667 19.3333L21.4167 14.8833L8.79999 14.9Z" fill="white"/>
</g>
<defs>
<clipPath id="clip0_409_1041">
<rect width="30" height="30" fill="white"/>
</clipPath>
</defs>
</svg>
