<svg width="30" height="30" viewBox="0 0 30 30" fill="none" xmlns="http://www.w3.org/2000/svg">
<path d="M30 15C30 23.2843 23.2843 30 15 30C6.71573 30 0 23.2843 0 15C0 6.71573 6.71573 0 15 0C23.2843 0 30 6.71573 30 15Z" fill="#E13B30"/>
<path d="M19.1422 9.1875C18.4338 8.37461 18.0434 7.33066 18.0437 6.25H14.8414V19.1667C14.8167 19.8657 14.5231 20.5277 14.0224 21.0135C13.5217 21.4992 12.8531 21.7707 12.1572 21.7708C10.6856 21.7708 9.46269 20.5625 9.46269 19.0625C9.46269 17.2708 11.183 15.9271 12.9552 16.4792V13.1875C9.37978 12.7083 6.25 15.5 6.25 19.0625C6.25 22.5312 9.11033 25 12.1468 25C15.401 25 18.0437 22.3438 18.0437 19.0625V12.5104C19.3422 13.4478 20.9013 13.9507 22.5 13.9479V10.7292C22.5 10.7292 20.5517 10.8229 19.1422 9.1875Z" fill="white"/>
</svg>
