<svg width="30" height="30" viewBox="0 0 30 30" fill="none" xmlns="http://www.w3.org/2000/svg">
<g clip-path="url(#clip0_409_1051)">
<path d="M14.5 30C22.7843 30 29.5 23.2843 29.5 15C29.5 6.71573 22.7843 0 14.5 0C6.21573 0 -0.5 6.71573 -0.5 15C-0.5 23.2843 6.21573 30 14.5 30Z" fill="#E13B30"/>
<path fill-rule="evenodd" clip-rule="evenodd" d="M10.85 8.46663C9.21817 8.46663 7.89998 9.78482 7.89998 11.4166V18.6666C7.89998 20.2984 9.21817 21.6166 10.85 21.6166H18.1C19.7318 21.6166 21.05 20.2984 21.05 18.6666V11.4166C21.05 9.78482 19.7318 8.46663 18.1 8.46663H10.85ZM6.56665 11.4166C6.56665 9.04844 8.48179 7.1333 10.85 7.1333H18.1C20.4682 7.1333 22.3833 9.04844 22.3833 11.4166V18.6666C22.3833 21.0348 20.4682 22.95 18.1 22.95H10.85C8.48179 22.95 6.56665 21.0348 6.56665 18.6666V11.4166Z" fill="white"/>
<path fill-rule="evenodd" clip-rule="evenodd" d="M14.5 12.2524C12.964 12.2524 11.7189 13.4975 11.7189 15.0335C11.7189 16.5695 12.964 17.8146 14.5 17.8146C16.036 17.8146 17.2811 16.5695 17.2811 15.0335C17.2811 13.4975 16.036 12.2524 14.5 12.2524ZM10.4811 15.0335C10.4811 12.814 12.2804 11.0146 14.5 11.0146C16.7196 11.0146 18.5189 12.814 18.5189 15.0335C18.5189 17.2531 16.7196 19.0524 14.5 19.0524C12.2804 19.0524 10.4811 17.2531 10.4811 15.0335Z" fill="white"/>
<path d="M18.7667 11.6999C19.3005 11.6999 19.7333 11.2671 19.7333 10.7333C19.7333 10.1994 19.3005 9.7666 18.7667 9.7666C18.2328 9.7666 17.8 10.1994 17.8 10.7333C17.8 11.2671 18.2328 11.6999 18.7667 11.6999Z" fill="white"/>
</g>
<defs>
<clipPath id="clip0_409_1051">
<rect width="30" height="30" fill="white"/>
</clipPath>
</defs>
</svg>
